# xmcd
#
# Track frame offsets: 
#        150
#        24927
#        42032
#        65865
#        87377
#        111827
#        132332
#        153832
#
# Disc length: 2335 seconds
#
# Revision: 2
# Processed by: cddbd v1.5.2PL0 Copyright (c) Steve Scherf et al.
# Submitted via: ExactAudioCopy v0.99pb5
#
DISCID=62091d08
DTITLE=Juicy - It Takes Two
DYEAR=1985
DGENRE=R&B
TTITLE0=Bad Boy
TTITLE1=It Takes Two
TTITLE2=Love Is Good Enough
TTITLE3=Slow Dancing
TTITLE4=Nobody But You
TTITLE5=Sugar Free
TTITLE6=Stay With Me
TTITLE7=Forever And Ever
EXTD=
EXTT0=
EXTT1=
EXTT2=
EXTT3=
EXTT4=
EXTT5=
EXTT6=
EXTT7=
PLAYORDER=
